<?xml version="1.0" encoding="utf-8"?>
<!-- Generator: Adobe Illustrator 25.0.1, SVG Export Plug-In . SVG Version: 6.00 Build 0)  -->
<svg version="1.1" xmlns="http://www.w3.org/2000/svg" xmlns:xlink="http://www.w3.org/1999/xlink" x="0px" y="0px"
	 viewBox="0 0 500 500" style="enable-background:new 0 0 500 500;" xml:space="preserve">
<style type="text/css">
	.st0{clip-path:url(#XMLID_2_);fill:#141C47;}
	.st1{clip-path:url(#XMLID_2_);fill:#D2318E;}
	.st2{fill:#D2318E;}
	.st3{opacity:0.22;fill:#D2318E;}
	.st4{fill:#141C47;}
	.st5{fill:#4A2F24;}
	.st6{clip-path:url(#XMLID_3_);fill:#9D6853;}
	.st7{clip-path:url(#XMLID_4_);fill:#1D345F;}
	.st8{clip-path:url(#XMLID_4_);}
	.st9{fill:#FFFFFF;}
	.st10{fill:#F1DDD9;}
	.st11{fill:#1D345F;}
	.st12{fill:#E99F9C;}
	.st13{clip-path:url(#XMLID_5_);fill:#1D345F;}
	.st14{clip-path:url(#XMLID_5_);}
	.st15{clip-path:url(#XMLID_6_);}
	.st16{clip-path:url(#XMLID_7_);fill:#D2318E;}
	.st17{clip-path:url(#XMLID_6_);fill:#FFFFFF;}
	.st18{clip-path:url(#XMLID_6_);fill:none;stroke:#4A81D5;stroke-width:0.4568;stroke-miterlimit:10;}
	.st19{clip-path:url(#XMLID_6_);fill:#1D345F;}
	.st20{clip-path:url(#XMLID_8_);fill:#1D345F;}
	.st21{clip-path:url(#XMLID_8_);}
	.st22{clip-path:url(#XMLID_9_);fill:#E99F9C;}
	.st23{clip-path:url(#XMLID_9_);}
	.st24{clip-path:url(#XMLID_10_);fill:#D2318E;}
	.st25{clip-path:url(#XMLID_11_);fill:#D2318E;}
	.st26{clip-path:url(#XMLID_12_);}
	.st27{fill:#D86088;}
	.st28{fill:#E04992;}
	.st29{clip-path:url(#XMLID_13_);fill:#E04992;}
	.st30{clip-path:url(#XMLID_14_);fill:#E04992;}
	.st31{clip-path:url(#XMLID_15_);fill:#D2318E;}
</style>
<g id="BACKGROUND">
	<g>
		<defs>
			<rect id="XMLID_00000007395100647104723700000011394289508455854501_" width="500" height="500"/>
		</defs>
		<use xlink:href="#XMLID_00000007395100647104723700000011394289508455854501_"  style="overflow:visible;fill:#141C47;"/>
		<clipPath id="XMLID_2_">
			<use xlink:href="#XMLID_00000007395100647104723700000011394289508455854501_"  style="overflow:visible;"/>
		</clipPath>
		<polygon class="st0" points="-40.53,404.86 371.07,426.17 431.01,415.51 554.89,426.17 550.13,506.09 -83.15,468.54 		"/>
		<polygon class="st1" points="131.19,454.47 372.66,454.47 372.66,22.85 131.19,74.58 		"/>
	</g>
	<g>
		<g>
			<path class="st2" d="M300.87,273.4c-79.71,19.17-160.89,36.58-241.46,51.73C139.12,305.94,220.3,288.57,300.87,273.4
				L300.87,273.4z"/>
		</g>
		<g>
			<path class="st2" d="M467.28,132.08c-79.71,19.17-160.89,36.58-241.46,51.73C305.53,164.62,386.71,147.24,467.28,132.08
				L467.28,132.08z"/>
		</g>
		<g>
			<path class="st2" d="M440.32,319.02c-67.35,16.19-135.84,30.87-203.92,43.69C303.75,346.5,372.25,331.84,440.32,319.02
				L440.32,319.02z"/>
		</g>
	</g>
	<g>
		<path class="st3" d="M105.37,262.52H45.06c-1.22,0-2.22-0.99-2.22-2.21v-16.87c0-1.22,0.99-2.21,2.22-2.21h60.31
			c1.22,0,2.22,0.99,2.22,2.21v16.87C107.59,261.53,106.6,262.52,105.37,262.52z"/>
		<path class="st3" d="M465.07,206.98h-60.31c-1.22,0-2.22-0.99-2.22-2.22v-16.87c0-1.22,0.99-2.22,2.22-2.22h60.31
			c1.22,0,2.21,0.99,2.21,2.22v16.87C467.28,205.98,466.29,206.98,465.07,206.98z"/>
		<path class="st3" d="M476.57,303.2h-60.31c-1.22,0-2.22-0.99-2.22-2.21v-16.87c0-1.22,0.99-2.22,2.22-2.22h60.31
			c1.22,0,2.21,0.99,2.21,2.22v16.87C478.79,302.21,477.79,303.2,476.57,303.2z"/>
		<path class="st3" d="M450.02,110.75h-60.31c-1.22,0-2.22-0.99-2.22-2.21V91.66c0-1.22,0.99-2.22,2.22-2.22h60.31
			c1.22,0,2.21,0.99,2.21,2.22v16.87C452.23,109.76,451.24,110.75,450.02,110.75z"/>
		<path class="st3" d="M78.41,235.75H18.1c-1.22,0-2.22-0.99-2.22-2.22v-16.87c0-1.22,0.99-2.21,2.22-2.21h60.31
			c1.22,0,2.21,0.99,2.21,2.21v16.87C80.62,234.76,79.63,235.75,78.41,235.75z"/>
		<path class="st3" d="M105.37,184.14H77.72l-22.02,11.42l13.48-11.42H45.06c-1.22,0-2.22,0.99-2.22,2.22v16.87
			c0,1.22,0.99,2.21,2.22,2.21h60.31c1.22,0,2.22-0.99,2.22-2.21v-16.87C107.59,185.13,106.6,184.14,105.37,184.14z"/>
		<path class="st3" d="M404.76,376h27.66l22.02-11.42L440.95,376h24.11c1.22,0,2.21-0.99,2.21-2.21v-16.87
			c0-1.22-0.99-2.22-2.21-2.22h-60.31c-1.22,0-2.22,0.99-2.22,2.22v16.87C402.54,375.01,403.53,376,404.76,376z"/>
		<path class="st3" d="M105.37,106.38H77.72l-22.02,11.42l13.48-11.42H45.06c-1.22,0-2.22,0.99-2.22,2.21v16.87
			c0,1.22,0.99,2.21,2.22,2.21h60.31c1.22,0,2.22-0.99,2.22-2.21V108.6C107.59,107.37,106.6,106.38,105.37,106.38z"/>
		<path class="st3" d="M105.37,357.6H77.72l-22.02,11.42l13.48-11.42H45.06c-1.22,0-2.22,0.99-2.22,2.22v16.87
			c0,1.22,0.99,2.21,2.22,2.21h60.31c1.22,0,2.22-0.99,2.22-2.21v-16.87C107.59,358.59,106.6,357.6,105.37,357.6z"/>
	</g>
</g>
<g id="OBJECTS">
	<path class="st2" d="M0,500h500v-65.25c-164.69,14.19-331.44,13.57-500,0V500z"/>
	<ellipse class="st4" cx="259.09" cy="465" rx="102.06" ry="8.99"/>
	<g>
		<path class="st5" d="M244.61,421.99c-1.5,3.39,0.98,17.05,3.91,20.96c2.93,3.91,0.28,15.09-3.49,15.93s-11.32-5.73-14.11-12.16
			c-2.79-6.43,0.56-13.56-3.35-22.22C223.65,415.84,244.61,421.99,244.61,421.99z"/>
		<g>
			<defs>
				<path id="XMLID_00000054972761432199312900000015456923109931854208_" d="M285.31,438.05c0,0,6.14,28.58,7.67,32.6
					c0,0-14.94,3.45-26.62,0c0,0,1.15-8.62,4.02-17.62c2.87-9,4.21-16.28,4.21-16.28L285.31,438.05z"/>
			</defs>
			<use xlink:href="#XMLID_00000054972761432199312900000015456923109931854208_"  style="overflow:visible;fill:#4A2F24;"/>
			<clipPath id="XMLID_3_">
				<use xlink:href="#XMLID_00000054972761432199312900000015456923109931854208_"  style="overflow:visible;"/>
			</clipPath>
			<ellipse class="st6" cx="279.67" cy="471.14" rx="13.76" ry="12.87"/>
		</g>
		<g>
			<defs>
				<path id="XMLID_00000174586001472521275340000008721751000083902630_" d="M316.73,241.64c0,0-8.85,106.32-23.04,147.34
					l3.08,17.81l-8.1,30.22c0,0-13.61,5.4-26.51,0l-10.73-117.18l-11.33,45.94c0,0,9.71,39.4,10.79,59.91c0,0-15.11,6.48-26.99,5.94
					l-23.61-62.07l4.18-7.02c0,0-17.82-80.88-11.88-113.03s42.83-38.79,42.83-38.79L316.73,241.64z"/>
			</defs>
			<use xlink:href="#XMLID_00000174586001472521275340000008721751000083902630_"  style="overflow:visible;fill:#141C47;"/>
			<clipPath id="XMLID_4_">
				<use xlink:href="#XMLID_00000174586001472521275340000008721751000083902630_"  style="overflow:visible;"/>
			</clipPath>
			<polygon class="st7" points="214.34,264.82 221.64,360.99 211.35,373 230.5,419.96 218.62,439.41 125.8,353.14 161.54,250.39 
				180.14,231.83 			"/>
			<g id="XMLID_00000033341912355361831200000000543985426694900622_" class="st8">
				<path class="st9" d="M312.08,287.11c-0.78,29.24-4.46,58.48-11.9,86.8c-1.49,5.21-3.15,10.48-5.18,15.52
					c0,0,0.06-0.69,0.06-0.69c0.37,2.99,0.65,6,0.97,9c0.28,3.01,0.55,6.02,0.74,9.04c-0.84-2.91-1.58-5.84-2.33-8.77
					c-0.72-3.02-1.5-6.03-2.16-9.06c1.13-4.29,2.25-8.56,3.16-12.91C301.61,347.29,305.84,315.92,312.08,287.11L312.08,287.11z"/>
			</g>
		</g>
		<path class="st10" d="M233.39,238.23c0,0,18.52,16.14,49.85,3.32c31.33-12.82-17.8-50.8-17.8-50.8l-32.05,11.39V238.23z"/>
		<path class="st11" d="M387.41,268.19c1.46,7.72-16.48,20.57-16.48,20.57l-3.26-27.67L387.41,268.19z"/>
		<g>
			<path class="st2" d="M367.73,312.71c0,0-8.24,2.9-14.25,6.81c-2.04,1.33-2.12-1.86-0.53-3.41c1.59-1.55,14.16-10.22,14.16-10.22
				L367.73,312.71z"/>
			<path class="st2" d="M367.37,310.18c0,0-8.73-0.37-15.76,1.03c-2.38,0.48-1.28-2.51,0.77-3.36c2.05-0.85,16.94-4.23,16.94-4.23
				L367.37,310.18z"/>
			<path class="st12" d="M374.82,264.82c0,0,4.22,18.13,5.46,39.23l-20.61,22.72c0,0-4.1-0.37-3.85-1.61
				c0.25-1.24,11.17-20.86,11.17-20.86l-3.24-8.5l-7.19,7.14c0,0-4.47-2.48-4.72-3.6c-0.25-1.12,12.29-20.49,12.29-20.49
				l-8.69-12.79L374.82,264.82z"/>
		</g>
		<g>
			<defs>
				<path id="XMLID_00000071546507800671704110000002021313932159204758_" d="M333.79,128.29c0,0,17.04,29.77,32.89,71.06
					c7.99,20.8,15.67,44.53,20.73,68.84c0,0-10.7-5.1-23.79,10.9l-37.4-44.77l-20.53-59.09
					C305.69,175.22,317.45,132.9,333.79,128.29z"/>
			</defs>
			<use xlink:href="#XMLID_00000071546507800671704110000002021313932159204758_"  style="overflow:visible;fill:#141C47;"/>
			<clipPath id="XMLID_5_">
				<use xlink:href="#XMLID_00000071546507800671704110000002021313932159204758_"  style="overflow:visible;"/>
			</clipPath>
			<path class="st13" d="M316.73,196.98c0,0,5.04-9.58,20.26-1.73l37.27,79.67l-32.47,11.28l-25.06-56.37V196.98"/>
			<g id="XMLID_00000005988497431276043290000008951489988406985867_" class="st14">
				<path class="st9" d="M333.79,128.29c13.16,21.38,23.9,44.2,33.12,67.54c9.09,23.38,16.53,47.56,20.5,72.36
					c-1.61-6.06-3.19-12.12-5.01-18.1C370.02,208.09,353.05,167.57,333.79,128.29L333.79,128.29z"/>
			</g>
		</g>
		<g>
			<defs>
				<path id="XMLID_00000149367435623085579370000006920811698743417522_" d="M274.68,96.69c0,0,17.51,6.4,31.39,17.11
					c0,0,30.13,8.72,32.11,11.89c1.98,3.17-13.48,13.09-14.67,17.05s-11.5,42.82-11.5,42.82l26.34,63.94c0,0-27.79,25.26-62.75,32.4
					l-20.94-74.29l-22.62,70.72c0,0-22.32,8.33-60.38-19.03l24.98-60.66l-7.14-26.96l3.07-62.81l45.02-14.71L274.68,96.69z"/>
			</defs>
			<use xlink:href="#XMLID_00000149367435623085579370000006920811698743417522_"  style="overflow:visible;fill:#141C47;"/>
			<clipPath id="XMLID_6_">
				<use xlink:href="#XMLID_00000149367435623085579370000006920811698743417522_"  style="overflow:visible;"/>
			</clipPath>
			<g class="st15">
				<defs>
					<path id="XMLID_00000119840046026964215850000007516782054854807191_" d="M230.69,96.43c0,0-5.26,44.09,19.5,84.67
						c0,0,31.75-53.54,27.93-82.38C274.91,74.45,230.69,96.43,230.69,96.43z"/>
				</defs>
				<use xlink:href="#XMLID_00000119840046026964215850000007516782054854807191_"  style="overflow:visible;fill:#F1DDD9;"/>
				<clipPath id="XMLID_7_">
					<use xlink:href="#XMLID_00000119840046026964215850000007516782054854807191_"  style="overflow:visible;"/>
				</clipPath>
				<polygon class="st16" points="259.38,124.91 254.01,132.73 262.16,182.03 248.08,190.47 237.9,181.53 250.93,132.36 
					247.21,121.93 255.52,117.46 				"/>
			</g>
			<path class="st17" d="M254.27,121.56l16.68,15.83c6.89-16.2,9.52-27.47,6.56-40.7l-45.2-7.71c-4.57,13.97-3.28,30.32,0.89,47.84
				L254.27,121.56z"/>
			<path class="st18" d="M250.19,181.1c27.36-17.09,43.49-51.57,43.49-51.57l-11.96-9.23l16.46-13.92l-22.54-14.15"/>
			<path class="st18" d="M228.99,93.27l-21.68,16.87l13.52,4.36l-9.49,7.05c0,0,15.85,44.39,44.17,83.42"/>
			<path class="st19" d="M196.65,198.64c3.78,16.61,3.64,39.14,3.64,39.14l-37.05,27.03l16.91-57.43L196.65,198.64"/>
		</g>
		<g>
			<defs>
				<path id="XMLID_00000131362457878581082900000002054785479181608845_" d="M198.2,108.88c0,0,21.96,28.89,9.11,57.04
					c-12.85,28.15-41.61,42.94-72.89,44.78c-11.53,0.68-23.58-27.82-22.64-40.71c0.93-12.89,72.35-69.89,72.35-69.89L198.2,108.88z"
					/>
			</defs>
			<use xlink:href="#XMLID_00000131362457878581082900000002054785479181608845_"  style="overflow:visible;fill:#141C47;"/>
			<clipPath id="XMLID_8_">
				<use xlink:href="#XMLID_00000131362457878581082900000002054785479181608845_"  style="overflow:visible;"/>
			</clipPath>
			<path class="st20" d="M180.19,103.2c0,0-25.06,71.53-68.46,87.55c-43.4,16.03-14.85-62.47-14.85-62.47l83.26-38.78L180.19,103.2"
				/>
			<g id="XMLID_00000142887019027471160400000000698111254267559615_" class="st21">
				<path class="st2" d="M134.43,210.7c-5.68,0.61-10.12-4.3-13.37-8.33c-6.42-8.9-10.93-19.38-11.68-30.43
					c-0.37-3.15,1.17-6.33,2.86-8.79c4.68-6.75,10.52-12.45,16.38-18.04c11.72-10.92,24.17-20.98,37.35-30.08
					c-7.46,7.63-15.14,14.97-22.75,22.34c-9.28,9.3-19.13,18.09-26.89,28.54c-0.83,1.25-1.59,2.39-2.01,3.69
					c-0.56,3.16,0.07,6.44,0.63,9.7C116.75,188.38,123.81,209.65,134.43,210.7L134.43,210.7z"/>
			</g>
		</g>
		<g>
			<defs>
				<polygon id="XMLID_00000111190615770098019200000009461770795371259267_" points="275.61,75.16 277.41,92.06 278.85,105.58 
					254.27,121.56 230.5,97.26 236.07,71.82 				"/>
			</defs>
			<use xlink:href="#XMLID_00000111190615770098019200000009461770795371259267_"  style="overflow:visible;fill:#D2318E;"/>
			<clipPath id="XMLID_9_">
				<use xlink:href="#XMLID_00000111190615770098019200000009461770795371259267_"  style="overflow:visible;"/>
			</clipPath>
			<polygon class="st22" points="234.51,73.58 235.42,93.32 246.2,118.73 229.02,99.01 			"/>
			<g id="XMLID_00000170250752142809496510000001212193489234154158_" class="st23">
				<path class="st9" d="M275.61,75.16c2.44,9.94,3.54,20.19,3.24,30.42C276.41,95.64,275.33,85.38,275.61,75.16L275.61,75.16z"/>
			</g>
		</g>
		<g>
			<g>
				<g>
					<defs>
						<path id="XMLID_00000053518558032098160750000001854955784315472774_" d="M236.22,65.13c0,0-3.97-9.96-7.55-3.97
							c-3.09,5.15,3.69,13.97,7.31,14.78L236.22,65.13z"/>
					</defs>
					<use xlink:href="#XMLID_00000053518558032098160750000001854955784315472774_"  style="overflow:visible;fill:#F2A6A0;"/>
					<clipPath id="XMLID_10_">
						<use xlink:href="#XMLID_00000053518558032098160750000001854955784315472774_"  style="overflow:visible;"/>
					</clipPath>
					<path class="st24" d="M235.73,73.48c0,0-5.02-4.89-6.17-8.42c-1.14-3.53,2.3-5.21,4.21-2.61c1.91,2.59-1.72,6.87,1.37,7.2
						C236.87,69.83,235.73,73.48,235.73,73.48z"/>
				</g>
			</g>
			<g>
				<g>
					<defs>
						<path id="XMLID_00000036213631087365477840000013682804168121221256_" d="M274.68,65.13c0,0,3.97-9.96,7.55-3.97
							c3.09,5.15-3.69,13.97-7.31,14.78L274.68,65.13z"/>
					</defs>
					<use xlink:href="#XMLID_00000036213631087365477840000013682804168121221256_"  style="overflow:visible;fill:#F2A6A0;"/>
					<clipPath id="XMLID_11_">
						<use xlink:href="#XMLID_00000036213631087365477840000013682804168121221256_"  style="overflow:visible;"/>
					</clipPath>
					<path class="st25" d="M275.17,73.48c0,0,5.02-4.89,6.17-8.42c1.14-3.53-2.3-5.21-4.21-2.61c-1.91,2.59,1.72,6.87-1.37,7.2
						C274.04,69.83,275.17,73.48,275.17,73.48z"/>
				</g>
			</g>
			<g>
				<defs>
					<path id="XMLID_00000086665569265259467830000013919433404288258227_" d="M252.56,36.53c-10.98,0.65-17.14,7.83-17.14,24.75
						c0,16.92,0.85,25.39,0.85,25.39S252.08,97.7,257,97.25c4.92-0.46,18.62-13.33,18.62-13.33s0-3.73,0-9.16c0-4.33,0-9.73,0-15.17
						C275.61,47.32,270.54,35.48,252.56,36.53z"/>
				</defs>
				<use xlink:href="#XMLID_00000086665569265259467830000013919433404288258227_"  style="overflow:visible;fill:#E99F9C;"/>
				<clipPath id="XMLID_12_">
					<use xlink:href="#XMLID_00000086665569265259467830000013919433404288258227_"  style="overflow:visible;"/>
				</clipPath>
				<g class="st26">
					<path class="st27" d="M256.15,91.9c-0.59,2.96-1.11,6.43,2.17,7.93C254.23,99.66,254.09,94.46,256.15,91.9L256.15,91.9z"/>
				</g>
			</g>
			<path class="st28" d="M254.4,67.59c-0.37,2.58-1,5.11-1.41,7.66c-0.11,0.62-0.2,1.27-0.17,1.83c0,0.25,0.09,0.4,0.26,0.56
				c0.7,0.51,1.69,0.51,2.57,0.53c0.64,0.01,1.29-0.04,1.95-0.09c-1.26,0.47-2.57,0.77-3.95,0.6c-2.05-0.28-1.8-2.04-1.56-3.58
				C252.54,72.5,253.31,69.99,254.4,67.59L254.4,67.59z"/>
			<path class="st28" d="M244.94,82.91c1.12-0.76,2.23-1.56,3.4-2.2c5.16-0.89,10.46-0.99,15.66-0.45c0.47,0.46,0.93,0.93,1.39,1.41
				c-0.53-0.36-1.06-0.73-1.58-1.11l0.1,0.04c-4.58,0.15-11.01,0.32-15.51,0.69C247.82,81.65,245.97,82.46,244.94,82.91
				L244.94,82.91z"/>
			<path class="st4" d="M238.66,58.03c0,0,7.81,2.51,12.89,7.1C251.55,65.13,242.12,61.87,238.66,58.03z"/>
			<path class="st4" d="M272.7,58.03c0,0-7.81,2.51-12.89,7.1C259.81,65.13,269.25,61.87,272.7,58.03z"/>
			<g>
				<g>
					<defs>
						<path id="XMLID_00000100373615076863688690000017879925253889303199_" d="M237.61,63.08l15.97,2.98c0,0,0.27,10.09-8.03,9.01
							C237.25,74.01,237.61,63.08,237.61,63.08z"/>
					</defs>
					<use xlink:href="#XMLID_00000100373615076863688690000017879925253889303199_"  style="overflow:visible;fill:#141C47;"/>
					<clipPath id="XMLID_13_">
						<use xlink:href="#XMLID_00000100373615076863688690000017879925253889303199_"  style="overflow:visible;"/>
					</clipPath>
					
						<rect x="244.96" y="62.59" transform="matrix(0.8434 0.5373 -0.5373 0.8434 76.3063 -121.5422)" class="st29" width="3.42" height="15.1"/>
					
						<rect x="242.99" y="59.94" transform="matrix(0.8434 0.5373 -0.5373 0.8434 74.4045 -120.2947)" class="st29" width="1.16" height="15.1"/>
				</g>
				<g>
					<defs>
						<path id="XMLID_00000143600349522108538160000009719958568073832610_" d="M270.82,65.62l-14.67,0.44c0,0-0.27,10.09,8.03,9.01
							C272.48,74.01,270.82,65.62,270.82,65.62z"/>
					</defs>
					<use xlink:href="#XMLID_00000143600349522108538160000009719958568073832610_"  style="overflow:visible;fill:#141C47;"/>
					<clipPath id="XMLID_14_">
						<use xlink:href="#XMLID_00000143600349522108538160000009719958568073832610_"  style="overflow:visible;"/>
					</clipPath>
					
						<rect x="262.09" y="64.3" transform="matrix(0.8434 0.5373 -0.5373 0.8434 79.9087 -130.4747)" class="st30" width="3.42" height="15.1"/>
					
						<rect x="260.12" y="61.66" transform="matrix(0.8434 0.5372 -0.5372 0.8434 77.9928 -129.2143)" class="st30" width="1.16" height="15.1"/>
				</g>
				<path class="st4" d="M235.19,62.53l18.4,3.53c0,0,1.12-0.98,2.57,0l19.46-0.93l0.02,0.93l-19.36,1.86c0,0-0.72-1.16-3.03-0.33
					l-18.06-3.84V62.53z"/>
			</g>
			<path class="st4" d="M255.52,48.35c-8.52-0.07-18.68-1.26-19.7-6.56c-1.02-5.3,7.61-11.41,16.55-9.79c0,0,7.41-5.3,16.48-0.72
				c0,0-4.49-0.9-10.78,1.26c0,0,6.25-0.66,11.67,0.96c3.3,0.98,6.29,2.81,7.37,6.14c0,0-1.44-2.07-3.23-2.51
				C273.87,37.12,276.86,48.53,255.52,48.35z"/>
			<g>
				<path class="st2" d="M258.07,32.54c6.44-1.12,17-0.54,19.04,7.1C273.73,32.89,264.64,32.94,258.07,32.54L258.07,32.54z"/>
			</g>
			<g>
				<path class="st2" d="M235.82,41.79c-0.55-1.78,0.11-3.83,1.24-5.34c3.54-4.61,9.88-6.42,15.48-5.41l-0.74,0.17
					c2.65-1.68,5.6-2.49,8.68-2.48c2.98-0.02,5.92,0.94,8.37,2.56c-1.39-0.43-2.75-0.85-4.15-1.02c-4.17-0.63-8.66,0.4-12.1,2.76
					c-3.51-0.59-7.2-0.24-10.45,1.24C239.09,35.66,235.8,38.06,235.82,41.79L235.82,41.79z"/>
			</g>
		</g>
		<polygon class="st12" points="254.01,118.6 270.3,94.17 263.55,110.14 		"/>
		<g>
			<path class="st2" d="M210.35,93.27c0,0-1.71-10.47,2.9-15.96c4.61-5.49-6.86-0.41-6.86-0.41l-6.1,12.86L210.35,93.27z"/>
			<g>
				<defs>
					<path id="XMLID_00000096772199101713407820000015405105683396272555_" d="M192.59,99.6c0,0,13.67-0.17,16.93,0.47
						c3.27,0.64,12.51-12.58,12.51-12.58s-2.93-2.47-5.4-1.05c-2.47,1.42-6.45,5.3-6.45,5.3l-3.83-5.86l3.73-3.97
						c0,0,8.62,2.55,11.11,2.98c2.49,0.44,5.62-2.56,5.62-2.56l-10.35-7.34c0,0,11.46-2.85,14.15-4.94c2.69-2.08,0.8-4.43,0.8-4.43
						s-11.19,3.84-20.79,3.91l-16.67,22.53L192.59,99.6z"/>
				</defs>
				<use xlink:href="#XMLID_00000096772199101713407820000015405105683396272555_"  style="overflow:visible;fill:#E99F9C;"/>
				<clipPath id="XMLID_15_">
					<use xlink:href="#XMLID_00000096772199101713407820000015405105683396272555_"  style="overflow:visible;"/>
				</clipPath>
				<path class="st31" d="M213.86,78.11c3.93,1.04,8.16,3.36,12.5,6.15l-13.09-5.59L213.86,78.11z"/>
				<path class="st31" d="M218.74,76.61c-3.15-2.31-7.3-5.78-7.3-5.78s12.06,1.46,21.56-2.93c9.51-4.39,0.2,7.47,0.2,7.47
					L218.74,76.61"/>
			</g>
		</g>
		<path class="st12" d="M193.95,92.06c-9.15,7.64-13.76,11.14-13.76,11.14c-0.55,9.83,3.53,16.82,9.77,22.49l17.35-28.43
			L193.95,92.06z"/>
		<path class="st11" d="M248.87,208.79c0,1.85-1.5,3.35-3.35,3.35c-1.85,0-3.35-1.5-3.35-3.35c0-1.85,1.5-3.35,3.35-3.35
			C247.37,205.44,248.87,206.94,248.87,208.79z"/>
		<path class="st11" d="M242.96,225.1c0,1.85-1.5,3.35-3.35,3.35c-1.85,0-3.35-1.5-3.35-3.35s1.5-3.35,3.35-3.35
			C241.46,221.75,242.96,223.25,242.96,225.1z"/>
	</g>
</g>
</svg>
